<svg width="16" height="17" viewBox="0 0 16 17" fill="none" xmlns="http://www.w3.org/2000/svg">
    <path d="M10.7072 14.8635C10.8947 14.6759 11 14.4216 11 14.1565C11 13.8913 10.8947 13.637 10.7072 13.4495L5.75721 8.49946L10.7072 3.54946C10.8894 3.36086 10.9902 3.10826 10.9879 2.84606C10.9856 2.58387 10.8804 2.33305 10.695 2.14764C10.5096 1.96224 10.2588 1.85707 9.99661 1.85479C9.73442 1.85251 9.48182 1.95331 9.29321 2.13546L3.63621 7.79246C3.44874 7.97999 3.34343 8.2343 3.34343 8.49946C3.34343 8.76463 3.44874 9.01894 3.63621 9.20646L9.29321 14.8635C9.48074 15.0509 9.73505 15.1562 10.0002 15.1562C10.2654 15.1562 10.5197 15.0509 10.7072 14.8635Z" fill="#222222"/>
</svg>
