<svg width="22" height="33" viewBox="0 0 22 33" fill="none" xmlns="http://www.w3.org/2000/svg">
    <path d="M11.4107 32.0003C10.5086 32.0003 9.63595 31.8203 8.80253 31.4703C7.94949 31.1103 7.1945 30.5803 6.55717 29.9103C5.89043 29.1803 5.28251 28.4003 4.74324 27.5803L1.18401 22.1303C1.09576 21.9903 1.03693 21.8303 1.00751 21.6603C0.987905 21.4903 1.00751 21.3203 1.05654 21.1603C1.10557 21.0003 1.20362 20.8503 1.32128 20.7403C1.43894 20.6203 1.58601 20.5303 1.74289 20.4803C2.08607 20.3603 2.42925 20.3103 2.79203 20.3103C3.04696 20.3103 3.30189 20.3403 3.54702 20.4003C4.14513 20.5403 4.69421 20.8503 5.12563 21.3003L6.85132 23.0703C6.93957 23.1603 7.06703 23.2303 7.1945 23.2503C7.23372 23.2503 7.28274 23.2603 7.32196 23.2603C7.41021 23.2603 7.49845 23.2403 7.57689 23.2103C7.70436 23.1603 7.80241 23.0703 7.88085 22.9603C7.95929 22.8503 7.98871 22.7203 7.98871 22.5803V8.25027C7.98871 8.03027 8.01812 7.81027 8.09656 7.60027C8.175 7.39027 8.29266 7.20027 8.44954 7.04027C8.60642 6.88027 8.78291 6.75027 8.98882 6.66027C9.19473 6.57027 9.41044 6.53027 9.62615 6.53027C9.84186 6.53027 10.0674 6.57027 10.2635 6.66027C10.4596 6.75027 10.6459 6.87027 10.8028 7.04027C10.9596 7.20027 11.0773 7.39027 11.1557 7.60027C11.2342 7.81027 11.2734 8.02027 11.2636 8.25027V15.7103C11.3224 15.3703 11.4891 15.0503 11.7342 14.8103C12.0382 14.5103 12.45 14.3403 12.8716 14.3403C13.2932 14.3403 13.705 14.5103 14.009 14.8103C14.313 15.1103 14.4895 15.5203 14.5091 15.9603V15.9803V16.7903C14.5287 16.6703 14.5581 16.5603 14.6071 16.4503C14.6856 16.2503 14.813 16.0603 14.9601 15.9103C15.117 15.7503 15.2935 15.6303 15.4896 15.5503C15.6857 15.4703 15.9014 15.4203 16.1171 15.4203C16.3328 15.4203 16.5485 15.4603 16.7446 15.5503C16.9407 15.6303 17.127 15.7603 17.2741 15.9103C17.431 16.0703 17.5486 16.2503 17.6271 16.4503C17.7055 16.6503 17.7545 16.8703 17.7545 17.0903V17.4703C17.8134 17.1303 17.98 17.2703 18.2252 17.0203C18.5291 16.7203 18.9409 16.5503 19.3626 16.5503C19.7842 16.5503 20.196 16.7203 20.4999 17.0203C20.8039 17.3203 20.9804 17.7303 21 18.1603V18.1803V25.2803C21 26.0703 20.8529 26.8503 20.5686 27.5803C20.0587 28.8903 19.1763 30.0103 18.0291 30.8003C16.8917 31.5903 15.5582 32.0003 14.1757 32.0003H11.4009H11.4107Z" stroke="#135EE4" stroke-width="2" stroke-linecap="round" stroke-linejoin="round"/>
    <path d="M17.7642 17.4502V19.2502" stroke="#135EE4" stroke-width="2" stroke-linecap="round" stroke-linejoin="round"/>
    <path d="M14.5093 16.7695V18.1095" stroke="#135EE4" stroke-width="2" stroke-linecap="round" stroke-linejoin="round"/>
    <path d="M11.2534 15.7002V17.0402" stroke="#135EE4" stroke-width="2" stroke-linecap="round" stroke-linejoin="round"/>
    <path d="M9.61621 3.4V1" stroke="#135EE4" stroke-width="2" stroke-linecap="round" stroke-linejoin="round"/>
    <path d="M15.7641 4.62012L13.7148 5.83012" stroke="#135EE4" stroke-width="2" stroke-linecap="round" stroke-linejoin="round"/>
    <path d="M15.7644 11.8602L13.8721 10.7402" stroke="#135EE4" stroke-width="2" stroke-linecap="round" stroke-linejoin="round"/>
    <path d="M3.46826 11.8602L5.37044 10.7402" stroke="#135EE4" stroke-width="2" stroke-linecap="round" stroke-linejoin="round"/>
    <path d="M5.52732 5.83012L3.46826 4.62012" stroke="#135EE4" stroke-width="2" stroke-linecap="round" stroke-linejoin="round"/>
</svg>
