<svg width="23" height="33" viewBox="0 0 23 33" fill="none" xmlns="http://www.w3.org/2000/svg">
    <path d="M11.6177 32C10.6977 32 9.80766 31.82 8.95766 31.47C8.08766 31.11 7.31766 30.58 6.66766 29.91C5.98766 29.18 5.36766 28.4 4.81766 27.58L1.18766 22.13C1.09766 21.99 1.03766 21.83 1.00766 21.66C0.987664 21.49 1.00766 21.32 1.05766 21.16C1.10766 21 1.20766 20.85 1.32766 20.74C1.44766 20.62 1.59766 20.53 1.75766 20.48C2.10766 20.36 2.45766 20.31 2.82766 20.31C3.08766 20.31 3.34766 20.34 3.59766 20.4C4.20766 20.54 4.76766 20.85 5.20766 21.3L6.96766 23.07C7.05766 23.16 7.18766 23.23 7.31766 23.25C7.35766 23.25 7.40766 23.26 7.44766 23.26C7.53766 23.26 7.62766 23.24 7.70766 23.21C7.83766 23.16 7.93766 23.07 8.01766 22.96C8.09766 22.85 8.12766 22.72 8.12766 22.58V8.25003C8.12766 8.03003 8.15766 7.81003 8.23766 7.60003C8.31766 7.39003 8.43766 7.20003 8.59766 7.04003C8.75766 6.88003 8.93766 6.75003 9.14766 6.66003C9.35766 6.57003 9.57766 6.53003 9.79766 6.53003C10.0177 6.53003 10.2477 6.57003 10.4477 6.66003C10.6477 6.75003 10.8377 6.87003 10.9977 7.04003C11.1577 7.20003 11.2777 7.39003 11.3577 7.60003C11.4377 7.81003 11.4777 8.02003 11.4677 8.25003V15.71C11.5277 15.37 11.6977 15.05 11.9477 14.81C12.2577 14.51 12.6777 14.34 13.1077 14.34C13.5377 14.34 13.9577 14.51 14.2677 14.81C14.5777 15.11 14.7577 15.52 14.7777 15.96V15.98V16.79C14.7977 16.67 14.8277 16.56 14.8777 16.45C14.9577 16.25 15.0877 16.06 15.2377 15.91C15.3977 15.75 15.5777 15.63 15.7777 15.55C15.9777 15.47 16.1977 15.42 16.4177 15.42C16.6377 15.42 16.8577 15.46 17.0577 15.55C17.2577 15.63 17.4477 15.76 17.5977 15.91C17.7577 16.07 17.8777 16.25 17.9577 16.45C18.0377 16.65 18.0877 16.87 18.0877 17.09V17.47C18.1477 17.13 18.3177 17.27 18.5677 17.02C18.8777 16.72 19.2977 16.55 19.7277 16.55C20.1577 16.55 20.5777 16.72 20.8877 17.02C21.1977 17.32 21.3777 17.73 21.3977 18.16V18.18V25.28C21.3977 26.07 21.2477 26.85 20.9577 27.58C20.4377 28.89 19.5377 30.01 18.3677 30.8C17.2077 31.59 15.8477 32 14.4377 32H11.6077H11.6177Z" stroke="#76BC21" stroke-width="2" stroke-linecap="round" stroke-linejoin="round"/>
    <path d="M18.0977 17.45V19.25" stroke="#76BC21" stroke-width="2" stroke-linecap="round" stroke-linejoin="round"/>
    <path d="M14.7777 16.77V18.11" stroke="#76BC21" stroke-width="2" stroke-linecap="round" stroke-linejoin="round"/>
    <path d="M11.4576 15.7V17.04" stroke="#76BC21" stroke-width="2" stroke-linecap="round" stroke-linejoin="round"/>
    <path d="M9.78766 3.4V1" stroke="#76BC21" stroke-width="2" stroke-linecap="round" stroke-linejoin="round"/>
    <path d="M16.0577 4.62L13.9677 5.83" stroke="#76BC21" stroke-width="2" stroke-linecap="round" stroke-linejoin="round"/>
    <path d="M16.0577 11.86L14.1277 10.74" stroke="#76BC21" stroke-width="2" stroke-linecap="round" stroke-linejoin="round"/>
    <path d="M3.5177 11.86L5.4577 10.74" stroke="#76BC21" stroke-width="2" stroke-linecap="round" stroke-linejoin="round"/>
    <path d="M5.6177 5.83L3.5177 4.62" stroke="#76BC21" stroke-width="2" stroke-linecap="round" stroke-linejoin="round"/>
</svg>
