<svg width="64" height="90" viewBox="0 0 64 90" fill="none" xmlns="http://www.w3.org/2000/svg">
    <path d="M62.1495 87.9213H1.69757V2.01592H62.1495V87.9213ZM51.0136 76.7854V13.1518H12.8335V76.7854H51.0136Z" fill="white"/>
    <path d="M5.35645 42.4232C5.35645 43.5537 6.27286 44.4701 7.40332 44.4701C8.53378 44.4701 9.4502 43.5537 9.4502 42.4232V39.8885C9.4502 38.7581 8.53378 37.8416 7.40332 37.8416C6.27286 37.8416 5.35645 38.7581 5.35645 39.8885L5.35645 42.4232Z" fill="#135EE4"/>
    <path d="M7.39822 48.6805C7.27116 48.6791 7.1498 48.6277 7.06045 48.5374C6.9711 48.447 6.92101 48.325 6.92102 48.198V40.6839C6.92102 40.6213 6.93335 40.5592 6.95733 40.5013C6.98132 40.4434 7.01646 40.3908 7.06078 40.3464C7.10509 40.3021 7.15771 40.267 7.21561 40.243C7.27352 40.219 7.33555 40.2067 7.39822 40.2067C7.46134 40.206 7.52399 40.2178 7.58251 40.2414C7.64103 40.2651 7.69428 40.3002 7.73916 40.3446C7.78404 40.3889 7.81965 40.4418 7.84396 40.5C7.86828 40.5583 7.8808 40.6208 7.88079 40.6839V48.198C7.88079 48.2613 7.86834 48.3241 7.84409 48.3827C7.81984 48.4412 7.78429 48.4944 7.73948 48.5392C7.69468 48.584 7.64145 48.6196 7.5829 48.6438C7.52435 48.6681 7.46159 48.6805 7.39822 48.6805Z" fill="white"/>
    <path d="M7.398 39.6658C7.26569 39.6658 7.1347 39.6919 7.01246 39.7425C6.89022 39.7931 6.77912 39.8674 6.68556 39.9609C6.592 40.0545 6.51779 40.1655 6.46716 40.2877C6.41653 40.41 6.39052 40.541 6.39052 40.6733V48.1874C6.38982 48.3201 6.41535 48.4517 6.46567 48.5746C6.51599 48.6974 6.59006 48.8091 6.68369 48.9032C6.77731 48.9974 6.88864 49.0721 7.01123 49.1231C7.13381 49.174 7.26524 49.2002 7.398 49.2002C7.5312 49.2009 7.66325 49.1752 7.78645 49.1246C7.90965 49.0739 8.02155 48.9994 8.11574 48.9052C8.20993 48.811 8.28453 48.699 8.33518 48.5758C8.38583 48.4526 8.41155 48.3206 8.41085 48.1874V40.6733C8.41085 40.5406 8.38459 40.4091 8.33363 40.2865C8.28266 40.1639 8.20798 40.0527 8.11386 39.959C8.01974 39.8654 7.90807 39.7913 7.78522 39.741C7.66237 39.6906 7.53075 39.6651 7.398 39.6658Z" fill="#135EE4"/>
    <path d="M51.0135 76.7642L51.0135 13.1306L12.8334 13.1306L12.8334 76.7642H51.0135Z" fill="white" stroke="#135EE4" stroke-width="2.03501" stroke-miterlimit="10"/>
    <path d="M28.0311 45.7481H21.6677C19.3308 45.7467 17.0899 44.8178 15.4374 43.1653C13.7849 41.5128 12.8559 39.2719 12.8545 36.9349" stroke="#135EE4" stroke-width="2.03501" stroke-miterlimit="10"/>
    <path d="M21.6998 39.5915L28.0314 45.7481L21.6998 51.9046" stroke="#135EE4" stroke-width="2.03501" stroke-miterlimit="10"/>
    <path d="M31.6425 28.3337V21.9704C31.6425 19.6315 32.5716 17.3885 34.2254 15.7347C35.8792 14.0809 38.1222 13.1518 40.461 13.1518" stroke="#135EE4" stroke-width="2.03501" stroke-miterlimit="10"/>
    <path d="M37.7988 22.0022L31.6423 28.3337L25.4857 22.0022" stroke="#135EE4" stroke-width="2.03501" stroke-miterlimit="10"/>
    <path d="M62.1495 2H1.69757V87.9054H62.1495V2Z" stroke="#135EE4" stroke-width="3.05251" stroke-miterlimit="10"/>
</svg>
