<svg width="65" height="90" viewBox="0 0 65 90" fill="none" xmlns="http://www.w3.org/2000/svg">
    <path d="M62.5053 87.9213H2.05334V2.01592H62.5053V87.9213ZM51.3694 76.7854V13.1518H13.1893V76.7854H51.3694Z" fill="white"/>
    <path d="M54.7621 42.4232C54.7621 43.5537 55.6785 44.4701 56.809 44.4701C57.9394 44.4701 58.8558 43.5537 58.8558 42.4232V39.8885C58.8558 38.7581 57.9394 37.8416 56.809 37.8416C55.6785 37.8416 54.7621 38.7581 54.7621 39.8885V42.4232Z" fill="#135EE4"/>
    <path d="M7.75406 48.6805C7.627 48.6791 7.50564 48.6277 7.41629 48.5374C7.32693 48.447 7.27685 48.325 7.27686 48.198V40.6839C7.27686 40.6213 7.28919 40.5592 7.31317 40.5013C7.33715 40.4434 7.37229 40.3908 7.41661 40.3464C7.46093 40.3021 7.51355 40.267 7.57145 40.243C7.62935 40.219 7.69138 40.2067 7.75406 40.2067C7.81717 40.206 7.87983 40.2178 7.93835 40.2414C7.99686 40.2651 8.05012 40.3002 8.095 40.3446C8.13988 40.3889 8.17548 40.4418 8.1998 40.5C8.22411 40.5583 8.23663 40.6208 8.23663 40.6839V48.198C8.23663 48.2613 8.22418 48.3241 8.19993 48.3827C8.17568 48.4412 8.14013 48.4944 8.09532 48.5392C8.05051 48.584 7.99728 48.6196 7.93873 48.6438C7.88019 48.6681 7.81743 48.6805 7.75406 48.6805Z" fill="white"/>
    <path d="M56.8036 39.6658C56.6713 39.6658 56.5403 39.6919 56.4181 39.7425C56.2959 39.7931 56.1848 39.8674 56.0912 39.9609C55.9976 40.0545 55.9234 40.1655 55.8728 40.2877C55.8222 40.41 55.7962 40.541 55.7962 40.6733V48.1874C55.7955 48.3201 55.821 48.4517 55.8713 48.5746C55.9216 48.6974 55.9957 48.8091 56.0893 48.9032C56.183 48.9974 56.2943 49.0721 56.4169 49.1231C56.5395 49.174 56.6709 49.2002 56.8036 49.2002C56.9368 49.2009 57.0689 49.1752 57.1921 49.1246C57.3153 49.0739 57.4272 48.9994 57.5214 48.9052C57.6156 48.811 57.6902 48.699 57.7408 48.5758C57.7915 48.4526 57.8172 48.3206 57.8165 48.1874V40.6733C57.8165 40.5406 57.7902 40.4091 57.7393 40.2865C57.6883 40.1639 57.6136 40.0527 57.5195 39.959C57.4254 39.8654 57.3137 39.7913 57.1909 39.741C57.068 39.6906 56.9364 39.6651 56.8036 39.6658Z" fill="#135EE4"/>
    <path d="M51.3693 76.7642L51.3693 13.1306L13.1891 13.1306L13.1891 76.7642H51.3693Z" fill="white" stroke="#135EE4" stroke-width="2.03501" stroke-miterlimit="10"/>
    <path d="M34.6602 28.3337V21.9704C34.6602 19.6315 33.731 17.3885 32.0772 15.7347C30.4234 14.0809 28.1804 13.1518 25.8416 13.1518" stroke="#135EE4" stroke-width="2.03501" stroke-miterlimit="10"/>
    <path d="M28.5037 22.0022L34.6602 28.3337L40.8168 22.0022" stroke="#135EE4" stroke-width="2.03501" stroke-miterlimit="10"/>
    <path d="M62.5053 2H2.05334V87.9054H62.5053V2Z" stroke="#135EE4" stroke-width="3.05251" stroke-miterlimit="10"/>
</svg>
