<svg width="64" height="90" viewBox="0 0 64 90" fill="none" xmlns="http://www.w3.org/2000/svg">
    <path d="M62.4091 87.9213H1.95715V2.01592H62.4091V87.9213ZM51.2732 76.7854V13.1518H13.0931V76.7854H51.2732Z" fill="white"/>
    <path d="M5.61597 42.4232C5.61597 43.5537 6.53238 44.4701 7.66284 44.4701C8.7933 44.4701 9.70972 43.5537 9.70972 42.4232V39.8885C9.70972 38.7581 8.7933 37.8416 7.66284 37.8416C6.53238 37.8416 5.61597 38.7581 5.61597 39.8885L5.61597 42.4232Z" fill="#135EE4"/>
    <path d="M7.65786 48.6805C7.5308 48.6791 7.40945 48.6277 7.3201 48.5374C7.23074 48.447 7.18066 48.325 7.18066 48.198V40.6839C7.18066 40.6213 7.19299 40.5592 7.21698 40.5013C7.24096 40.4434 7.2761 40.3908 7.32042 40.3464C7.36474 40.3021 7.41735 40.267 7.47526 40.243C7.53316 40.219 7.59519 40.2067 7.65786 40.2067C7.72098 40.206 7.78364 40.2178 7.84215 40.2414C7.90067 40.2651 7.95392 40.3002 7.9988 40.3446C8.04369 40.3889 8.07929 40.4418 8.10361 40.5C8.12792 40.5583 8.14044 40.6208 8.14044 40.6839V48.198C8.14044 48.2613 8.12799 48.3241 8.10373 48.3827C8.07948 48.4412 8.04394 48.4944 7.99913 48.5392C7.95432 48.584 7.90109 48.6196 7.84254 48.6438C7.784 48.6681 7.72123 48.6805 7.65786 48.6805Z" fill="white"/>
    <path d="M7.65764 39.6658C7.52533 39.6658 7.39434 39.6919 7.2721 39.7425C7.14986 39.7931 7.03876 39.8674 6.94521 39.9609C6.85165 40.0545 6.77744 40.1655 6.7268 40.2877C6.67617 40.41 6.65016 40.541 6.65016 40.6733V48.1874C6.64946 48.3201 6.67499 48.4517 6.72531 48.5746C6.77563 48.6974 6.8497 48.8091 6.94333 48.9032C7.03696 48.9974 7.14828 49.0721 7.27087 49.1231C7.39346 49.174 7.52488 49.2002 7.65764 49.2002C7.79084 49.2009 7.92289 49.1752 8.04609 49.1246C8.16929 49.0739 8.28119 48.9994 8.37538 48.9052C8.46957 48.811 8.54417 48.699 8.59482 48.5758C8.64547 48.4526 8.6712 48.3206 8.67049 48.1874V40.6733C8.6705 40.5406 8.64423 40.4091 8.59327 40.2865C8.5423 40.1639 8.46763 40.0527 8.37351 39.959C8.27939 39.8654 8.16772 39.7913 8.04486 39.741C7.92201 39.6906 7.7904 39.6651 7.65764 39.6658Z" fill="#135EE4"/>
    <path d="M51.2731 76.7642L51.2731 13.1306L13.0929 13.1306L13.0929 76.7642H51.2731Z" fill="white" stroke="#135EE4" stroke-width="2.03501" stroke-miterlimit="10"/>
    <path d="M28.2907 45.7481H21.9274C19.5904 45.7467 17.3495 44.8178 15.697 43.1653C14.0445 41.5128 13.1155 39.2719 13.1141 36.9349" stroke="#135EE4" stroke-width="2.03501" stroke-miterlimit="10"/>
    <path d="M21.9595 39.5915L28.291 45.7481L21.9595 51.9046" stroke="#135EE4" stroke-width="2.03501" stroke-miterlimit="10"/>
    <path d="M62.4091 2H1.95715V87.9054H62.4091V2Z" stroke="#135EE4" stroke-width="3.05251" stroke-miterlimit="10"/>
</svg>
