<svg width="66" height="93" viewBox="0 0 66 93" fill="none" xmlns="http://www.w3.org/2000/svg">
    <path d="M2.00006 90.6284H64.3567V2.01636H2.00006V90.6284ZM13.4868 79.1416V13.5031H52.8699V79.1416H13.4868Z" fill="white"/>
    <path d="M60.5823 43.6967C60.5823 44.8628 59.6371 45.8081 58.471 45.8081C57.3049 45.8081 56.3596 44.8628 56.3596 43.6967V41.0822C56.3596 39.9161 57.3049 38.9708 58.471 38.9708C59.6371 38.9708 60.5823 39.9161 60.5823 41.0822V43.6967Z" fill="#135EE4"/>
    <path d="M58.4764 50.1513C58.6075 50.1498 58.7326 50.0968 58.8248 50.0036C58.917 49.9104 58.9686 49.7846 58.9686 49.6535V41.9027C58.9686 41.8381 58.9559 41.774 58.9312 41.7143C58.9064 41.6546 58.8702 41.6003 58.8245 41.5546C58.7788 41.5089 58.7245 41.4726 58.6648 41.4479C58.605 41.4231 58.541 41.4104 58.4764 41.4104C58.4113 41.4097 58.3467 41.4219 58.2863 41.4463C58.2259 41.4707 58.171 41.5069 58.1247 41.5527C58.0784 41.5984 58.0417 41.653 58.0166 41.713C57.9915 41.7731 57.9786 41.8376 57.9786 41.9027V49.6535C57.9786 49.7189 57.9915 49.7836 58.0165 49.844C58.0415 49.9044 58.0782 49.9593 58.1244 50.0055C58.1706 50.0517 58.2255 50.0884 58.2859 50.1134C58.3463 50.1384 58.411 50.1513 58.4764 50.1513Z" fill="white"/>
    <path d="M58.4765 40.8526C58.613 40.8526 58.7481 40.8794 58.8742 40.9317C59.0003 40.9839 59.1149 41.0605 59.2114 41.157C59.3079 41.2535 59.3844 41.368 59.4367 41.4941C59.4889 41.6202 59.5157 41.7554 59.5157 41.8918V49.6426C59.5165 49.7796 59.4901 49.9153 59.4382 50.042C59.3863 50.1688 59.3099 50.2839 59.2133 50.381C59.1167 50.4781 59.0019 50.5552 58.8755 50.6078C58.749 50.6604 58.6135 50.6874 58.4765 50.6874C58.3391 50.6881 58.2029 50.6616 58.0758 50.6093C57.9487 50.5571 57.8333 50.4802 57.7362 50.383C57.639 50.2859 57.562 50.1704 57.5098 50.0433C57.4576 49.9162 57.431 49.78 57.4317 49.6426V41.8918C57.4317 41.7549 57.4588 41.6193 57.5114 41.4928C57.564 41.3664 57.641 41.2516 57.7381 41.155C57.8352 41.0584 57.9504 40.982 58.0771 40.9301C58.2038 40.8782 58.3396 40.8518 58.4765 40.8526Z" fill="#135EE4"/>
    <path d="M37.1932 47.1266H43.7571C46.1677 47.1251 48.4792 46.1669 50.1838 44.4624C51.8883 42.7578 52.8466 40.4463 52.848 38.0356" stroke="#135EE4" stroke-width="2.09913" stroke-miterlimit="10"/>
    <path d="M43.7242 40.7759L37.1932 47.1264L43.7242 53.4769" stroke="#135EE4" stroke-width="2.09913" stroke-miterlimit="10"/>
    <path d="M33.4681 29.1634V22.5996C33.4681 20.1871 32.5098 17.8734 30.8038 16.1675C29.0979 14.4616 26.7842 13.5032 24.3717 13.5032" stroke="#135EE4" stroke-width="2.09913" stroke-miterlimit="10"/>
    <path d="M27.1179 22.6323L33.4684 29.1634L39.819 22.6323" stroke="#135EE4" stroke-width="2.09913" stroke-miterlimit="10"/>
    <path d="M13.4867 79.1198L13.4867 13.4812L52.8698 13.4812L52.8698 79.1198H13.4867Z" stroke="#135EE4" stroke-width="2.09913" stroke-miterlimit="10"/>
    <path d="M2.00009 2H64.3567V90.612H2.00009V2Z" stroke="#135EE4" stroke-width="3.14869" stroke-miterlimit="10"/>
</svg>
