<svg width="64" height="90" viewBox="0 0 64 90" fill="none" xmlns="http://www.w3.org/2000/svg">
    <path d="M62.0534 87.9213H1.60144V2.01592H62.0534V87.9213ZM50.9175 76.7854V13.1518H12.7374V76.7854H50.9175Z" fill="white"/>
    <path d="M54.3102 42.4232C54.3102 43.5537 55.2266 44.4701 56.3571 44.4701C57.4875 44.4701 58.4039 43.5537 58.4039 42.4232V39.8885C58.4039 38.7581 57.4875 37.8416 56.3571 37.8416C55.2266 37.8416 54.3102 38.7581 54.3102 39.8885V42.4232Z" fill="#135EE4"/>
    <path d="M7.30215 48.6805C7.17509 48.6791 7.05374 48.6277 6.96438 48.5374C6.87503 48.447 6.82494 48.325 6.82495 48.198V40.6839C6.82495 40.6213 6.83728 40.5592 6.86127 40.5013C6.88525 40.4434 6.92039 40.3908 6.96471 40.3464C7.00902 40.3021 7.06164 40.267 7.11954 40.243C7.17745 40.219 7.23948 40.2067 7.30215 40.2067C7.36527 40.206 7.42793 40.2178 7.48644 40.2414C7.54496 40.2651 7.59821 40.3002 7.64309 40.3446C7.68797 40.3889 7.72358 40.4418 7.74789 40.5C7.77221 40.5583 7.78473 40.6208 7.78472 40.6839V48.198C7.78472 48.2613 7.77227 48.3241 7.74802 48.3827C7.72377 48.4412 7.68823 48.4944 7.64342 48.5392C7.59861 48.584 7.54538 48.6196 7.48683 48.6438C7.42828 48.6681 7.36552 48.6805 7.30215 48.6805Z" fill="white"/>
    <path d="M56.3517 39.6658C56.2194 39.6658 56.0884 39.6919 55.9662 39.7425C55.844 39.7931 55.7329 39.8674 55.6393 39.9609C55.5457 40.0545 55.4715 40.1655 55.4209 40.2877C55.3703 40.41 55.3443 40.541 55.3443 40.6733V48.1874C55.3436 48.3201 55.3691 48.4517 55.4194 48.5746C55.4697 48.6974 55.5438 48.8091 55.6374 48.9032C55.731 48.9974 55.8424 49.0721 55.965 49.1231C56.0875 49.174 56.219 49.2002 56.3517 49.2002C56.4849 49.2009 56.617 49.1752 56.7402 49.1246C56.8634 49.0739 56.9753 48.9994 57.0695 48.9052C57.1637 48.811 57.2383 48.699 57.2889 48.5758C57.3396 48.4526 57.3653 48.3206 57.3646 48.1874V40.6733C57.3646 40.5406 57.3383 40.4091 57.2874 40.2865C57.2364 40.1639 57.1617 40.0527 57.0676 39.959C56.9735 39.8654 56.8618 39.7913 56.739 39.741C56.6161 39.6906 56.4845 39.6651 56.3517 39.6658Z" fill="#135EE4"/>
    <path d="M12.7373 76.7642L12.7373 13.1306L50.9175 13.1306L50.9175 76.7642H12.7373Z" fill="white" stroke="#135EE4" stroke-width="2.03501" stroke-miterlimit="10"/>
    <path d="M35.7196 45.7481H42.083C44.42 45.7467 46.6609 44.8178 48.3134 43.1653C49.9659 41.5128 50.8948 39.2719 50.8962 36.9349" stroke="#135EE4" stroke-width="2.03501" stroke-miterlimit="10"/>
    <path d="M42.0509 39.5915L35.7194 45.7481L42.0509 51.9046" stroke="#135EE4" stroke-width="2.03501" stroke-miterlimit="10"/>
    <path d="M32.1084 28.3337V21.9704C32.1084 19.6315 31.1793 17.3885 29.5255 15.7347C27.8717 14.0809 25.6287 13.1518 23.2898 13.1518" stroke="#135EE4" stroke-width="2.03501" stroke-miterlimit="10"/>
    <path d="M25.9519 22.0022L32.1085 28.3337L38.265 22.0022" stroke="#135EE4" stroke-width="2.03501" stroke-miterlimit="10"/>
    <path d="M62.0534 2H1.60144V87.9054H62.0534V2Z" stroke="#135EE4" stroke-width="3.05251" stroke-miterlimit="10"/>
</svg>
