<svg width="65" height="90" viewBox="0 0 65 90" fill="none" xmlns="http://www.w3.org/2000/svg">
    <path d="M62.9572 87.9213H2.50525V2.01592H62.9572V87.9213ZM51.8213 76.7854V13.1518H13.6412V76.7854H51.8213Z" fill="white"/>
    <path d="M55.214 42.4232C55.214 43.5537 56.1304 44.4701 57.2609 44.4701C58.3913 44.4701 59.3077 43.5537 59.3077 42.4232V39.8885C59.3077 38.7581 58.3913 37.8416 57.2609 37.8416C56.1304 37.8416 55.214 38.7581 55.214 39.8885V42.4232Z" fill="#135EE4"/>
    <path d="M8.20596 48.6805C8.0789 48.6791 7.95754 48.6277 7.86819 48.5374C7.77884 48.447 7.72875 48.325 7.72876 48.198V40.6839C7.72876 40.6213 7.74109 40.5592 7.76507 40.5013C7.78906 40.4434 7.8242 40.3908 7.86851 40.3464C7.91283 40.3021 7.96545 40.267 8.02335 40.243C8.08126 40.219 8.14329 40.2067 8.20596 40.2067C8.26908 40.206 8.33173 40.2178 8.39025 40.2414C8.44877 40.2651 8.50202 40.3002 8.5469 40.3446C8.59178 40.3889 8.62739 40.4418 8.6517 40.5C8.67602 40.5583 8.68854 40.6208 8.68853 40.6839V48.198C8.68853 48.2613 8.67608 48.3241 8.65183 48.3827C8.62758 48.4412 8.59203 48.4944 8.54722 48.5392C8.50241 48.584 8.44919 48.6196 8.39064 48.6438C8.33209 48.6681 8.26933 48.6805 8.20596 48.6805Z" fill="white"/>
    <path d="M57.2555 39.6658C57.1232 39.6658 56.9922 39.6919 56.87 39.7425C56.7478 39.7931 56.6367 39.8674 56.5431 39.9609C56.4495 40.0545 56.3753 40.1655 56.3247 40.2877C56.2741 40.41 56.2481 40.541 56.2481 40.6733V48.1874C56.2474 48.3201 56.2729 48.4517 56.3232 48.5746C56.3735 48.6974 56.4476 48.8091 56.5412 48.9032C56.6349 48.9974 56.7462 49.0721 56.8688 49.1231C56.9914 49.174 57.1228 49.2002 57.2555 49.2002C57.3887 49.2009 57.5208 49.1752 57.644 49.1246C57.7672 49.0739 57.8791 48.9994 57.9733 48.9052C58.0675 48.811 58.1421 48.699 58.1927 48.5758C58.2434 48.4526 58.2691 48.3206 58.2684 48.1874V40.6733C58.2684 40.5406 58.2421 40.4091 58.1912 40.2865C58.1402 40.1639 58.0655 40.0527 57.9714 39.959C57.8773 39.8654 57.7656 39.7913 57.6428 39.741C57.5199 39.6906 57.3883 39.6651 57.2555 39.6658Z" fill="#135EE4"/>
    <path d="M13.6411 76.7642L13.6411 13.1306L51.8213 13.1306L51.8213 76.7642H13.6411Z" fill="white" stroke="#135EE4" stroke-width="2.03501" stroke-miterlimit="10"/>
    <path d="M36.6234 45.7481H42.9868C45.3238 45.7467 47.5647 44.8178 49.2172 43.1653C50.8697 41.5128 51.7986 39.2719 51.8 36.9349" stroke="#135EE4" stroke-width="2.03501" stroke-miterlimit="10"/>
    <path d="M42.9547 39.5915L36.6232 45.7481L42.9547 51.9046" stroke="#135EE4" stroke-width="2.03501" stroke-miterlimit="10"/>
    <path d="M62.9572 2H2.50525V87.9054H62.9572V2Z" stroke="#135EE4" stroke-width="3.05251" stroke-miterlimit="10"/>
</svg>
