<svg width="65" height="90" viewBox="0 0 65 90" fill="none" xmlns="http://www.w3.org/2000/svg">
    <path d="M62.6976 87.9213H2.24561V2.01592H62.6976V87.9213ZM51.5617 76.7854V13.1518H13.3815V76.7854H51.5617Z" fill="white"/>
    <path d="M5.90448 42.4232C5.90448 43.5537 6.8209 44.4701 7.95136 44.4701C9.08182 44.4701 9.99823 43.5537 9.99823 42.4232V39.8885C9.99823 38.758 9.08182 37.8416 7.95136 37.8416C6.8209 37.8416 5.90448 38.758 5.90448 39.8885L5.90448 42.4232Z" fill="#135EE4"/>
    <path d="M7.94626 48.6805C7.8192 48.6791 7.69784 48.6277 7.60849 48.5374C7.51913 48.447 7.46905 48.325 7.46906 48.198V40.6839C7.46906 40.6213 7.48139 40.5592 7.50537 40.5013C7.52935 40.4434 7.56449 40.3908 7.60881 40.3464C7.65313 40.3021 7.70575 40.267 7.76365 40.243C7.82155 40.219 7.88358 40.2067 7.94626 40.2067C8.00937 40.206 8.07203 40.2178 8.13055 40.2414C8.18906 40.2651 8.24232 40.3002 8.2872 40.3446C8.33208 40.3889 8.36768 40.4418 8.392 40.5C8.41631 40.5583 8.42883 40.6208 8.42883 40.6839V48.198C8.42883 48.2613 8.41638 48.3241 8.39213 48.3827C8.36788 48.4412 8.33233 48.4944 8.28752 48.5392C8.24271 48.584 8.18948 48.6196 8.13093 48.6438C8.07239 48.6681 8.00963 48.6805 7.94626 48.6805Z" fill="white"/>
    <path d="M7.94603 39.6658C7.81372 39.6658 7.68273 39.6919 7.56049 39.7425C7.43825 39.7931 7.32716 39.8674 7.2336 39.9609C7.14004 40.0545 7.06583 40.1655 7.01519 40.2877C6.96456 40.41 6.93855 40.541 6.93855 40.6733V48.1874C6.93785 48.3201 6.96338 48.4517 7.0137 48.5746C7.06403 48.6974 7.13809 48.8091 7.23172 48.9032C7.32535 48.9974 7.43668 49.0721 7.55926 49.1231C7.68185 49.174 7.81327 49.2002 7.94603 49.2002C8.07924 49.2009 8.21129 49.1752 8.33449 49.1246C8.45769 49.0739 8.56958 48.9994 8.66377 48.9052C8.75797 48.811 8.83256 48.699 8.88321 48.5758C8.93386 48.4526 8.95959 48.3206 8.95889 48.1874V40.6733C8.95889 40.5406 8.93262 40.4091 8.88166 40.2865C8.8307 40.1639 8.75602 40.0527 8.6619 39.959C8.56778 39.8654 8.45611 39.7913 8.33326 39.741C8.2104 39.6906 8.07879 39.6651 7.94603 39.6658Z" fill="#135EE4"/>
    <path d="M51.5616 76.7642L51.5616 13.1306L13.3814 13.1306L13.3814 76.7642H51.5616Z" fill="white" stroke="#135EE4" stroke-width="2.03501" stroke-miterlimit="10"/>
    <path d="M32.1905 28.3337V21.9704C32.1905 19.6315 33.1196 17.3885 34.7734 15.7347C36.4272 14.0809 38.6702 13.1518 41.0091 13.1518" stroke="#135EE4" stroke-width="2.03501" stroke-miterlimit="10"/>
    <path d="M38.3469 22.0022L32.1904 28.3337L26.0338 22.0022" stroke="#135EE4" stroke-width="2.03501" stroke-miterlimit="10"/>
    <path d="M62.6975 2H2.24561V87.9054H62.6975V2Z" stroke="#135EE4" stroke-width="3.05251" stroke-miterlimit="10"/>
</svg>
