<svg width="53" height="75" viewBox="0 0 53 75" fill="none" xmlns="http://www.w3.org/2000/svg">
<path d="M51 73H2V2H51V73ZM41.9737 63.7963V11.2037H11.0263V63.7963H41.9737Z" fill="white"/>
<path d="M6.4972 40C6.36482 39.9988 6.23837 39.9564 6.14528 39.8817C6.05218 39.8071 5.99999 39.7063 6 39.6014V33.3943C6 33.3425 6.01285 33.2912 6.03784 33.2434C6.06283 33.1955 6.09944 33.1521 6.14561 33.1155C6.19179 33.0789 6.24661 33.0498 6.30694 33.03C6.36727 33.0102 6.4319 33 6.4972 33C6.56296 32.9994 6.62825 33.0092 6.68922 33.0287C6.75018 33.0483 6.80567 33.0773 6.85243 33.1139C6.89919 33.1506 6.93629 33.1942 6.96162 33.2424C6.98696 33.2905 7 33.3421 7 33.3943V39.6014C7 39.6537 6.98703 39.7056 6.96176 39.7539C6.93649 39.8023 6.89946 39.8463 6.85277 39.8833C6.80608 39.9203 6.75062 39.9496 6.68962 39.9697C6.62862 39.9897 6.56323 40 6.4972 40Z" fill="white"/>
<path d="M45 36.1472C45 37.1705 45.6716 38 46.5 38C47.3284 38 48 37.1705 48 36.1472V33.8529C48 32.8296 47.3284 32 46.5 32C45.6716 32 45 32.8296 45 33.8529V36.1472Z" fill="#222222"/>
<path d="M46.4973 34C46.3664 34 46.2367 34.0219 46.1157 34.0644C45.9947 34.1069 45.8847 34.1691 45.7921 34.2476C45.6995 34.3261 45.626 34.4193 45.5759 34.5219C45.5258 34.6244 45.5 34.7344 45.5 34.8454V41.1501C45.4993 41.2615 45.5246 41.372 45.5744 41.475C45.6242 41.5781 45.6975 41.6718 45.7902 41.7508C45.8829 41.8298 45.9931 41.8925 46.1145 41.9352C46.2358 41.978 46.3659 42 46.4973 42C46.6292 42.0006 46.7599 41.979 46.8819 41.9365C47.0038 41.894 47.1146 41.8315 47.2078 41.7524C47.3011 41.6734 47.3749 41.5795 47.4251 41.4761C47.4752 41.3727 47.5007 41.2619 47.5 41.1501V34.8454C47.5 34.734 47.474 34.6237 47.4235 34.5208C47.3731 34.418 47.2992 34.3246 47.206 34.2461C47.1128 34.1675 47.0023 34.1053 46.8807 34.0631C46.759 34.0208 46.6288 33.9994 46.4973 34Z" fill="#222222"/>
<path d="M11 64L11 11L42 11V64H11Z" stroke="#222222" stroke-width="1.6" stroke-miterlimit="10"/>
<path d="M30 38H35.0314C36.8793 37.9989 38.6511 37.2611 39.9577 35.9485C41.2644 34.636 41.9989 32.8562 42 31" stroke="#222222" stroke-width="1.6" stroke-miterlimit="10"/>
<path d="M35 33L30 38L35 43" stroke="#222222" stroke-width="1.6" stroke-miterlimit="10"/>
<path d="M27 23V17.9703C27 16.1217 26.2625 14.3488 24.9497 13.0416C23.637 11.7344 21.8565 11 20 11" stroke="#222222" stroke-width="1.6" stroke-miterlimit="10"/>
<path d="M22 19L27 24L32 19" stroke="#222222" stroke-width="1.6" stroke-miterlimit="10"/>
<path d="M51 2H2V73H51V2Z" stroke="#222222" stroke-width="2.5" stroke-miterlimit="10"/>
</svg>
