<svg width="53" height="75" viewBox="0 0 53 75" fill="none" xmlns="http://www.w3.org/2000/svg">
<path d="M51 73H2V2H51V73ZM41.9737 63.7963V11.2037H11.0263V63.7963H41.9737Z" fill="white"/>
<path d="M45 36.1472C45 37.1705 45.6716 38 46.5 38C47.3284 38 48 37.1705 48 36.1472V33.8529C48 32.8296 47.3284 32 46.5 32C45.6716 32 45 32.8296 45 33.8529V36.1472Z" fill="#222222"/>
<path d="M46.4973 34C46.3664 34 46.2367 34.0219 46.1157 34.0644C45.9947 34.1069 45.8847 34.1691 45.7921 34.2476C45.6995 34.3261 45.626 34.4193 45.5759 34.5219C45.5258 34.6244 45.5 34.7344 45.5 34.8454V41.1501C45.4993 41.2615 45.5246 41.372 45.5744 41.475C45.6242 41.5781 45.6975 41.6718 45.7902 41.7508C45.8829 41.8298 45.9931 41.8925 46.1145 41.9352C46.2358 41.978 46.3659 42 46.4973 42C46.6292 42.0006 46.7599 41.979 46.8819 41.9365C47.0038 41.894 47.1146 41.8315 47.2078 41.7524C47.3011 41.6734 47.3749 41.5795 47.4251 41.4761C47.4752 41.3727 47.5007 41.2619 47.5 41.1501V34.8454C47.5 34.734 47.474 34.6237 47.4235 34.5208C47.3731 34.418 47.2992 34.3246 47.206 34.2461C47.1128 34.1675 47.0023 34.1053 46.8807 34.0631C46.759 34.0208 46.6288 33.9994 46.4973 34Z" fill="#222222"/>
<path d="M11 64L11 11L42 11V64H11Z" stroke="#222222" stroke-width="1.6" stroke-miterlimit="10"/>
<path d="M30 38H35.0314C36.8793 37.9989 38.6511 37.2611 39.9577 35.9485C41.2644 34.636 41.9989 32.8562 42 31" stroke="#222222" stroke-width="1.6" stroke-miterlimit="10"/>
<path d="M35 33L30 38L35 43" stroke="#222222" stroke-width="1.6" stroke-miterlimit="10"/>
<path d="M51 2H2V73H51V2Z" stroke="#222222" stroke-width="2.5" stroke-miterlimit="10"/>
</svg>
