<svg width="53" height="75" viewBox="0 0 53 75" fill="none" xmlns="http://www.w3.org/2000/svg">
<path d="M51 73H2V2H51V73ZM41.9737 63.7963V11.2037H11.0263V63.7963H41.9737Z" fill="white"/>
<path d="M5 36.1472C5 37.1705 5.67157 38 6.5 38C7.32843 38 8 37.1705 8 36.1472V33.8529C8 32.8296 7.32843 32 6.5 32C5.67157 32 5 32.8296 5 33.8529V36.1472Z" fill="#222222"/>
<path d="M6.49734 34C6.36636 34 6.23669 34.0219 6.11569 34.0644C5.99468 34.1069 5.8847 34.1691 5.79209 34.2476C5.69947 34.3261 5.62601 34.4193 5.57588 34.5219C5.52576 34.6244 5.50001 34.7344 5.50001 34.8454V41.1501C5.49932 41.2615 5.5246 41.372 5.57441 41.475C5.62422 41.5781 5.69754 41.6718 5.79023 41.7508C5.88291 41.8298 5.99312 41.8925 6.11447 41.9352C6.23582 41.978 6.36592 42 6.49734 42C6.6292 42.0006 6.75992 41.979 6.88188 41.9365C7.00384 41.894 7.11461 41.8315 7.20785 41.7524C7.30109 41.6734 7.37494 41.5795 7.42508 41.4761C7.47522 41.3727 7.50068 41.2619 7.49999 41.1501V34.8454C7.49999 34.734 7.47399 34.6237 7.42354 34.5208C7.37309 34.418 7.29916 34.3246 7.20599 34.2461C7.11282 34.1675 7.00228 34.1053 6.88066 34.0631C6.75905 34.0208 6.62876 33.9994 6.49734 34Z" fill="#222222"/>
<path d="M42 64V11L11 11L11 64H42Z" stroke="#222222" stroke-width="1.6" stroke-miterlimit="10"/>
<path d="M23 38H17.9686C16.1207 37.9989 14.3489 37.2611 13.0423 35.9485C11.7356 34.636 11.0011 32.8562 11 31" stroke="#222222" stroke-width="1.6" stroke-miterlimit="10"/>
<path d="M18 33L23 38L18 43" stroke="#222222" stroke-width="1.6" stroke-miterlimit="10"/>
<path d="M51 2H2V73H51V2Z" stroke="#222222" stroke-width="2.5" stroke-miterlimit="10"/>
</svg>
