<svg width="66" height="93" viewBox="0 0 66 93" fill="none" xmlns="http://www.w3.org/2000/svg">
    <path d="M64.3566 90.6284H2V2.01636H64.3566V90.6284ZM52.8699 79.1416V13.5031H13.4868V79.1416H52.8699Z" fill="white"/>
    <path d="M5.7741 43.6967C5.7741 44.8628 6.71938 45.8081 7.88546 45.8081C9.05154 45.8081 9.99683 44.8628 9.99683 43.6967V41.0822C9.99683 39.9161 9.05154 38.9708 7.88546 38.9708C6.71938 38.9708 5.7741 39.9161 5.7741 41.0822L5.7741 43.6967Z" fill="#135EE4"/>
    <path d="M7.8803 50.1513C7.74923 50.1498 7.62405 50.0968 7.53189 50.0036C7.43972 49.9104 7.38805 49.7846 7.38806 49.6535V41.9027C7.38806 41.8381 7.40078 41.774 7.42552 41.7143C7.45026 41.6546 7.48651 41.6003 7.53222 41.5546C7.57793 41.5089 7.63221 41.4726 7.69194 41.4479C7.75166 41.4231 7.81565 41.4104 7.8803 41.4104C7.9454 41.4097 8.01003 41.4219 8.07039 41.4463C8.13075 41.4707 8.18569 41.5069 8.23198 41.5527C8.27827 41.5984 8.315 41.653 8.34008 41.713C8.36516 41.7731 8.37808 41.8376 8.37807 41.9027V49.6535C8.37807 49.7189 8.36523 49.7836 8.34022 49.844C8.3152 49.9044 8.27853 49.9593 8.23231 50.0055C8.18609 50.0517 8.13119 50.0884 8.07079 50.1134C8.0104 50.1384 7.94566 50.1513 7.8803 50.1513Z" fill="white"/>
    <path d="M7.88006 40.8526C7.74358 40.8526 7.60846 40.8794 7.48237 40.9317C7.35628 40.9839 7.24168 41.0605 7.14518 41.157C7.04867 41.2535 6.97212 41.368 6.91989 41.4941C6.86766 41.6202 6.84083 41.7554 6.84083 41.8918V49.6426C6.84011 49.7796 6.86645 49.9153 6.91836 50.042C6.97026 50.1688 7.04666 50.2839 7.14324 50.381C7.23982 50.4781 7.35465 50.5552 7.4811 50.6078C7.60755 50.6604 7.74312 50.6874 7.88006 50.6874C8.01746 50.6881 8.15367 50.6616 8.28075 50.6093C8.40783 50.5571 8.52326 50.4802 8.62041 50.383C8.71757 50.2859 8.79452 50.1704 8.84677 50.0433C8.89901 49.9162 8.92555 49.78 8.92482 49.6426V41.8918C8.92482 41.7549 8.89774 41.6193 8.84517 41.4928C8.79259 41.3664 8.71556 41.2516 8.61848 41.155C8.52139 41.0584 8.4062 40.982 8.27948 40.9301C8.15276 40.8782 8.017 40.8518 7.88006 40.8526Z" fill="#135EE4"/>
    <path d="M29.1632 47.1266H22.5994C20.1887 47.1251 17.8773 46.1669 16.1727 44.4624C14.4681 42.7578 13.5099 40.4463 13.5084 38.0356" stroke="#135EE4" stroke-width="2.09913" stroke-miterlimit="10"/>
    <path d="M22.6324 40.7759L29.1635 47.1264L22.6324 53.4769" stroke="#135EE4" stroke-width="2.09913" stroke-miterlimit="10"/>
    <path d="M32.8883 29.1634V22.5996C32.8883 20.1871 33.8467 17.8734 35.5526 16.1675C37.2585 14.4616 39.5722 13.5032 41.9847 13.5032" stroke="#135EE4" stroke-width="2.09913" stroke-miterlimit="10"/>
    <path d="M39.2388 22.6323L32.8882 29.1634L26.5377 22.6323" stroke="#135EE4" stroke-width="2.09913" stroke-miterlimit="10"/>
    <path d="M52.8698 79.1198L52.8698 13.4812L13.4866 13.4812L13.4866 79.1198H52.8698Z" stroke="#135EE4" stroke-width="2.09913" stroke-miterlimit="10"/>
    <path d="M64.3566 2H2V90.612H64.3566V2Z" stroke="#135EE4" stroke-width="3.14869" stroke-miterlimit="10"/>
</svg>
